{"title":"The Walking Dead s02e02 HDTV XViD AC3 DTRG","uid":6767863,"size":547854382,"categoryP":"video","categoryS":"tv_shows","magnet":"?xt=urn:btih:f78af470b84621d448fb4350ee732e529bbd0e12&amp;dn=The+Walking+Dead+s02e02+HDTV+XViD+AC3+DTRG&amp;tr=udp%3A%2F%2Ftracker.openbittorrent.com%3A80&amp;tr=udp%3A%2F%2Fopen.demonii.com%3A1337&amp;tr=udp%3A%2F%2Ftracker.coppersurfer.tk%3A6969&amp;tr=udp%3A%2F%2Fexodus.desync.com%3A6969","seeders":1,"leechers":0,"uploader":"SAFCukO09","files":2,"time":1319463435,"description":"Format : AVI\nFormat/Info : Audio Video Interleave\nFile size : 522 MiB\nDuration : 42mn 48s\nOverall bit rate : 1 707 Kbps\nWriting application : VirtualDubMod 1.5.10.2 (build 2540/release)\nWriting library : VirtualDubMod build 2540/release\n\nVideo\nID : 0\nFormat : MPEG-4 Visual\nFormat profile : Advanced Simple@L5\nFormat settings, BVOP : 2\nFormat settings, QPel : No\nFormat settings, GMC : No warppoints\nFormat settings, Matrix : Default (H.263)\nMuxing mode : Packed bitstream\nCodec ID : XVID\nCodec ID/Hint : XviD\nDuration : 42mn 48s\nBit rate : 1 313 Kbps\nWidth : 624 pixels\nHeight : 352 pixels\nDisplay aspect ratio : 16:9\nFrame rate : 23.976 fps\nColor space : YUV\nChroma subsampling : 4:2:0\nBit depth : 8 bits\nScan type : Progressive\nCompression mode : Lossy\nBits/(Pixel*Frame) : 0.249\nStream size : 402 MiB (77%)\nWriting library : XviD 64\n\nAudio\nID : 1\nFormat : AC-3\nFormat/Info : Audio Coding 3\nMode extension : CM (complete main)\nCodec ID : 2000\nDuration : 42mn 48s\nBit rate mode : Constant\nBit rate : 384 Kbps\nChannel(s) : 6 channels\nChannel positions : Front: L C R, Side: L R, LFE\nSampling rate : 48.0 KHz\nBit depth : 16 bits\nCompression mode : Lossy\nStream size : 118 MiB (23%)\nAlignment : Split accross interleaves\nInterleave, duration : 42 ms (1.00 video frame)\nInterleave, preload duration : 500 ms\n\n\n\n\n\n\n\nThe Walking Dead: Bloodletting\nComing to the aid of another, Rick discovers a possible safe haven. Shane must go on a dangerous mission to get badly needed medical supplies.\n\nSource: AMC\n","torrent":{"xt":"urn:btih:f78af470b84621d448fb4350ee732e529bbd0e12","amp;dn":"The+Walking+Dead+s02e02+HDTV+XViD+AC3+DTRG","amp;tr":["udp%3A%2F%2Ftracker.openbittorrent.com%3A80","udp%3A%2F%2Fopen.demonii.com%3A1337","udp%3A%2F%2Ftracker.coppersurfer.tk%3A6969","udp%3A%2F%2Fexodus.desync.com%3A6969"],"infoHash":"f78af470b84621d448fb4350ee732e529bbd0e12","infoHashBuffer":{"type":"Buffer","data":[247,138,244,112,184,70,33,212,72,251,67,80,238,115,46,82,155,189,14,18]},"announce":[],"urlList":[]}}